<svg width="250" height="250" viewBox="0 0 250 250" fill="none" xmlns="http://www.w3.org/2000/svg">
<path d="M0 125C0 55.9644 55.9644 0 125 0C194.036 0 250 55.9644 250 125C250 194.036 194.036 250 125 250C55.9644 250 0 194.036 0 125Z" fill="#1C222A"/>
<path d="M46.609 191.325C42.17 191.325 40.7212 189.29 42.2625 185.221L87.5765 66.2028C89.4877 61.209 92.3853 58.7121 96.2694 58.7121H109.216C113.1 58.7121 115.998 61.209 117.909 66.2028L163.223 185.221C164.764 189.29 163.316 191.325 158.877 191.325H144.173C140.104 191.325 137.268 189.198 135.665 184.944L134.56 182.031C129.547 168.811 116.882 160.067 102.743 160.067C88.604 160.067 75.9383 168.811 70.9254 182.031L69.8208 184.944C68.2179 189.198 65.3819 191.325 61.3129 191.325H46.609ZM90.7472 128.487C89.3245 132.738 92.4883 137.133 96.9715 137.133H109.837C113.691 137.133 116.428 133.381 115.251 129.711L108.89 109.885L108.714 109.456C106.499 104.078 98.7874 104.36 96.9715 109.885L90.7472 128.487Z" fill="white"/>
<path d="M144.213 132.546C137.1 120.728 138.348 105.684 147.311 95.1987L173.806 64.2053C177.135 60.5678 179.971 58.7491 182.314 58.7491H200.902C208.115 58.7491 209.286 61.4001 204.416 66.7022L177.859 95.1621C166.783 107.031 165.613 125.062 175.061 138.262L207.375 183.409C210.766 188.711 209.595 191.362 203.861 191.362H186.568C183.362 191.362 180.588 189.543 178.245 185.906L144.213 132.546Z" fill="url(#paint0_linear_488_17622)"/>
<defs>
<linearGradient id="paint0_linear_488_17622" x1="212.632" y1="58.7491" x2="212.632" y2="191.362" gradientUnits="userSpaceOnUse">
<stop stop-color="#00BBFF"/>
<stop offset="1" stop-color="#2600FF"/>
</linearGradient>
</defs>
</svg>
