<svg width="250" height="250" viewBox="0 0 250 250" fill="none" xmlns="http://www.w3.org/2000/svg">
<path d="M195.312 0H54.6875C24.4844 0 0 24.4844 0 54.6875V195.312C0 225.516 24.4844 250 54.6875 250H195.312C225.516 250 250 225.516 250 195.312V54.6875C250 24.4844 225.516 0 195.312 0Z" fill="#1C222A"/>
<path d="M104.167 58.3333H120.834L132.5 111.667L166.25 58.3333H195.834L155 115L199.167 183.333H167.5L137.917 137.083L132.5 144.167V183.333L131.25 179.167L104.167 58.3333Z" fill="url(#paint0_linear_485_17719)"/>
<path d="M87.4998 58.3333H120.834L154.166 183.333H126.25L118.333 160.833H90.4165L82.4998 183.333H54.1665L87.4998 58.3333ZM97.9165 136.25H111.25L104.583 112.5L97.9165 136.25Z" fill="white"/>
<defs>
<linearGradient id="paint0_linear_485_17719" x1="113.75" y1="58.3333" x2="209.584" y2="183.333" gradientUnits="userSpaceOnUse">
<stop stop-color="#11A3F5"/>
<stop offset="1" stop-color="#045AA8"/>
</linearGradient>
</defs>
</svg>
