<svg width="500" height="500" viewBox="0 0 500 500" fill="none" xmlns="http://www.w3.org/2000/svg">
<path d="M0 250C0 111.929 111.929 0 250 0C388.071 0 500 111.929 500 250C500 388.071 388.071 500 250 500C111.929 500 0 388.071 0 250Z" fill="#1C222A"/>
<path d="M93.2179 382.65C84.3401 382.65 81.4425 378.581 84.525 370.443L175.153 132.406C178.975 122.418 184.771 117.424 192.539 117.424H218.432C226.201 117.424 231.996 122.418 235.818 132.406L326.446 370.443C329.529 378.581 326.631 382.65 317.753 382.65H288.345C280.207 382.65 274.536 378.396 271.33 369.888L269.12 364.062C259.095 337.621 233.763 320.135 205.486 320.135C177.208 320.135 151.877 337.621 141.851 364.062L139.642 369.888C136.436 378.396 130.764 382.65 122.626 382.65H93.2179ZM181.494 256.973C178.649 265.476 184.977 274.266 193.943 274.266H219.675C227.382 274.266 232.856 266.761 230.501 259.423L217.781 219.771L217.427 218.912C212.998 208.155 197.575 208.719 193.943 219.771L181.494 256.973Z" fill="white"/>
<path d="M288.426 265.092C274.2 241.456 276.696 211.367 294.622 190.397L347.612 128.411C354.27 121.136 359.942 117.498 364.628 117.498H401.804C416.23 117.498 418.573 122.8 408.832 133.404L355.717 190.324C333.567 214.061 331.227 250.124 350.123 276.525L414.751 366.818C421.532 377.422 419.189 382.724 407.722 382.724H373.136C366.724 382.724 361.175 379.086 356.49 371.811L288.426 265.092Z" fill="url(#paint0_linear_488_17622)"/>
<defs>
<linearGradient id="paint0_linear_488_17622" x1="425.263" y1="117.498" x2="425.263" y2="382.724" gradientUnits="userSpaceOnUse">
<stop stop-color="#00BBFF"/>
<stop offset="1" stop-color="#2600FF"/>
</linearGradient>
</defs>
</svg>
