<svg width="500" height="500" viewBox="0 0 500 500" fill="none" xmlns="http://www.w3.org/2000/svg">
<path d="M390.625 0H109.375C48.9689 0 0 48.9689 0 109.375V390.625C0 451.031 48.9689 500 109.375 500H390.625C451.031 500 500 451.031 500 390.625V109.375C500 48.9689 451.031 0 390.625 0Z" fill="#1C222A"/>
<path d="M208.334 116.667H241.667L265 223.333L332.5 116.667H391.667L310 230L398.334 366.667H335L275.834 274.167L265 288.333V366.667L262.5 358.333L208.334 116.667Z" fill="url(#paint0_linear_485_17719)"/>
<path d="M175 116.667H241.667L308.333 366.667H252.5L236.666 321.667H180.833L165 366.667H108.333L175 116.667ZM195.833 272.5H222.5L209.166 225L195.833 272.5Z" fill="white"/>
<defs>
<linearGradient id="paint0_linear_485_17719" x1="227.5" y1="116.667" x2="419.167" y2="366.667" gradientUnits="userSpaceOnUse">
<stop stop-color="#11A3F5"/>
<stop offset="1" stop-color="#045AA8"/>
</linearGradient>
</defs>
</svg>
